
      <svg data-logo="logo" xmlns="http://www.w3.org/2000/svg" viewBox="0 0 222 42">
        <g id="logogram" transform="translate(0, 1) rotate(0) "><path d="M16.6584 40H15.3817C12.0653 40 10.07 39.9994 8.54581 39.7159L17.3668 28.0344L16.6584 40Z" fill="#FF1616"/><path d="M31.2482 39.7514C29.7502 39.9988 27.7875 40 24.6183 40H23.109L22.397 28.0309L31.2482 39.7514Z" fill="#FF1616"/><path d="M39.6715 31.6708C39.6071 31.9773 39.5313 32.2655 39.4389 32.5426C38.8337 34.3567 37.7712 35.9522 36.3867 37.1982L26.44 26.044L39.6715 31.6708Z" fill="#FF1616"/><path d="M3.48544 37.0792C2.16397 35.8511 1.14739 34.3 0.56108 32.5426C0.459551 32.2382 0.375253 31.921 0.307173 31.5803L13.3239 26.0458L3.48544 37.0792Z" fill="#FF1616"/><path d="M40 24.6183C40 25.7428 39.9968 26.7154 39.9858 27.5692L28.1729 23.006H40V24.6183Z" fill="#FF1616"/><path d="M11.5962 23.006L0.0106534 27.4805C0.000706106 26.6481 0 25.704 0 24.6183V23.006H11.5962Z" fill="#FF1616"/><path d="M24.6183 0C28.7807 0 30.862 0.000553673 32.5426 0.56108C35.7979 1.64713 38.3529 4.20208 39.4389 7.45739C39.9994 9.13798 40 11.2193 40 15.3817V20.016H27.5089L36.5181 16.1861L33.8459 14.4123L25.1048 17.7876L29.2081 12.358L26.2571 11.5501L21.7259 16.6282L21.3885 10.9091H18.3825L18.0398 16.6282L13.5121 11.5501L10.5629 12.358L14.6609 17.7859L5.92507 14.4123L3.25284 16.1861L12.2603 20.016H0V15.3817C0 11.2193 0.000553673 9.13798 0.56108 7.45739C1.64713 4.20208 4.20208 1.64713 7.45739 0.56108C9.13798 0.000553673 11.2193 0 15.3817 0H24.6183Z" fill="#FF1616"/></g>
        <g id="logotype" transform="translate(46, 7)"><path fill="#ff1616" d="M14.58 28L8.91 28L8.91 3.50L27.42 3.50L27.42 8.05L14.58 8.05L14.58 28ZM25.92 19.07L14.16 19.07L14.16 14.52L25.92 14.52L25.92 19.07ZM35.58 28L30.12 28L30.12 9.17L35.58 9.17L35.58 28ZM32.85 6.54L32.85 6.54Q31.34 6.54 30.40 5.67Q29.45 4.79 29.45 3.50L29.45 3.50Q29.45 2.20 30.40 1.33Q31.34 0.45 32.85 0.45L32.85 0.45Q34.35 0.45 35.30 1.28Q36.24 2.10 36.24 3.39L36.24 3.39Q36.24 4.76 35.31 5.65Q34.39 6.54 32.85 6.54ZM45.34 28L39.88 28L39.88 9.17L45.09 9.17L45.09 14.49L44.36 12.95Q45.20 10.95 47.05 9.92Q48.91 8.89 51.57 8.89L51.57 8.89L51.57 13.93Q51.22 13.89 50.94 13.88Q50.66 13.86 50.34 13.86L50.34 13.86Q48.11 13.86 46.72 15.14Q45.34 16.41 45.34 19.11L45.34 19.11L45.34 28ZM60.53 28.28L60.53 28.28Q58.11 28.28 55.89 27.70Q53.67 27.13 52.38 26.25L52.38 26.25L54.20 22.33Q55.49 23.13 57.26 23.64Q59.02 24.15 60.74 24.15L60.74 24.15Q62.63 24.15 63.42 23.70Q64.20 23.24 64.20 22.43L64.20 22.43Q64.20 21.77 63.59 21.44Q62.98 21.11 61.96 20.93Q60.95 20.75 59.74 20.58Q58.53 20.41 57.31 20.11Q56.08 19.81 55.07 19.21Q54.05 18.62 53.44 17.60Q52.83 16.59 52.83 14.98L52.83 14.98Q52.83 13.19 53.86 11.83Q54.89 10.46 56.85 9.68Q58.81 8.89 61.55 8.89L61.55 8.89Q63.47 8.89 65.47 9.31Q67.46 9.73 68.79 10.53L68.79 10.53L66.97 14.42Q65.61 13.61 64.22 13.32Q62.84 13.02 61.55 13.02L61.55 13.02Q59.72 13.02 58.88 13.51Q58.05 14.00 58.05 14.77L58.05 14.77Q58.05 15.47 58.66 15.82Q59.27 16.17 60.28 16.38Q61.30 16.59 62.51 16.75Q63.71 16.91 64.94 17.22Q66.16 17.53 67.16 18.11Q68.16 18.69 68.79 19.69Q69.42 20.68 69.42 22.29L69.42 22.29Q69.42 24.04 68.37 25.39Q67.32 26.74 65.34 27.51Q63.36 28.28 60.53 28.28ZM79.71 28.28L79.71 28.28Q76.38 28.28 74.53 26.58Q72.67 24.88 72.67 21.52L72.67 21.52L72.67 5.00L78.13 5.00L78.13 21.45Q78.13 22.64 78.77 23.29Q79.39 23.94 80.48 23.94L80.48 23.94Q81.77 23.94 82.69 23.24L82.69 23.24L84.16 27.09Q83.31 27.68 82.14 27.98Q80.97 28.28 79.71 28.28ZM82.82 13.37L69.77 13.37L69.77 9.17L82.82 9.17L82.82 13.37ZM104.04 28.42L104.04 28.42Q101.10 28.42 98.40 27.63Q95.71 26.84 94.06 25.59L94.06 25.59L95.99 21.31Q97.56 22.43 99.71 23.15Q101.87 23.87 104.07 23.87L104.07 23.87Q105.75 23.87 106.78 23.54Q107.82 23.20 108.31 22.61Q108.80 22.02 108.80 21.24L108.80 21.24Q108.80 20.27 108.03 19.69Q107.26 19.11 106.00 18.74Q104.74 18.38 103.21 18.04Q101.69 17.71 100.17 17.22Q98.65 16.73 97.39 15.96Q96.13 15.19 95.34 13.93Q94.55 12.67 94.55 10.71L94.55 10.71Q94.55 8.61 95.69 6.88Q96.83 5.14 99.12 4.11Q101.41 3.08 104.88 3.08L104.88 3.08Q107.19 3.08 109.43 3.62Q111.67 4.16 113.38 5.25L113.38 5.25L111.63 9.55Q109.92 8.57 108.20 8.10Q106.49 7.63 104.84 7.63L104.84 7.63Q103.20 7.63 102.15 8.01Q101.10 8.40 100.64 9.01Q100.19 9.63 100.19 10.43L100.19 10.43Q100.19 11.38 100.96 11.95Q101.73 12.53 102.99 12.88Q104.25 13.23 105.77 13.58Q107.29 13.93 108.81 14.38Q110.34 14.84 111.60 15.61Q112.86 16.38 113.64 17.64Q114.43 18.90 114.43 20.82L114.43 20.82Q114.43 22.89 113.28 24.61Q112.12 26.32 109.83 27.37Q107.54 28.42 104.04 28.42ZM122.62 28L117.16 28L117.16 2.03L122.62 2.03L122.62 14.38L121.40 12.81Q122.41 10.92 124.30 9.90Q126.19 8.89 128.61 8.89L128.61 8.89Q130.85 8.89 132.61 9.78Q134.38 10.67 135.40 12.51Q136.41 14.35 136.41 17.22L136.41 17.22L136.41 28L130.95 28L130.95 18.06Q130.95 15.78 129.95 14.70Q128.96 13.61 127.14 13.61L127.14 13.61Q125.84 13.61 124.81 14.16Q123.78 14.70 123.20 15.82Q122.62 16.94 122.62 18.69L122.62 18.69L122.62 28ZM146.03 28L140.58 28L140.58 9.17L146.03 9.17L146.03 28ZM143.31 6.54L143.31 6.54Q141.80 6.54 140.86 5.67Q139.91 4.79 139.91 3.50L139.91 3.50Q139.91 2.20 140.86 1.33Q141.80 0.45 143.31 0.45L143.31 0.45Q144.81 0.45 145.75 1.28Q146.70 2.10 146.70 3.39L146.70 3.39Q146.70 4.76 145.77 5.65Q144.84 6.54 143.31 6.54ZM156.47 28L151.00 28L151.00 8.75Q151.00 5.56 152.89 3.66Q154.78 1.75 158.28 1.75L158.28 1.75Q159.47 1.75 160.58 1.99Q161.68 2.24 162.45 2.76L162.45 2.76L161.01 6.72Q160.56 6.40 160 6.23Q159.44 6.05 158.81 6.05L158.81 6.05Q157.62 6.05 156.97 6.74Q156.32 7.42 156.32 8.78L156.32 8.78L156.32 10.53L156.47 12.88L156.47 28ZM161.16 13.79L148.10 13.79L148.10 9.59L161.16 9.59L161.16 13.79ZM170.81 28.28L170.81 28.28Q167.49 28.28 165.63 26.58Q163.78 24.88 163.78 21.52L163.78 21.52L163.78 5.00L169.24 5.00L169.24 21.45Q169.24 22.64 169.87 23.29Q170.50 23.94 171.59 23.94L171.59 23.94Q172.88 23.94 173.79 23.24L173.79 23.24L175.26 27.09Q174.42 27.68 173.25 27.98Q172.07 28.28 170.81 28.28ZM173.93 13.37L160.88 13.37L160.88 9.17L173.93 9.17L173.93 13.37Z"/></g>
        
      </svg>
    